<svg width="56" height="8" viewBox="0 0 56 8" fill="none" xmlns="http://www.w3.org/2000/svg">
<path d="M0.893852 6.14813V0.468479H4.4159V1.20617H1.75079V2.93669H4.16354V3.6716H1.75079V6.14813H0.893852ZM6.9264 6.2341C6.50672 6.2341 6.14527 6.14443 5.84206 5.9651C5.54069 5.78391 5.30774 5.52969 5.14319 5.20245C4.98049 4.87335 4.89915 4.48787 4.89915 4.04599C4.89915 3.60967 4.98049 3.22511 5.14319 2.89232C5.30774 2.55952 5.537 2.29976 5.83096 2.11303C6.12678 1.92629 6.47251 1.83293 6.86817 1.83293C7.10852 1.83293 7.34147 1.87268 7.56703 1.95218C7.79259 2.03168 7.99504 2.15647 8.17438 2.32657C8.35371 2.49666 8.49515 2.7176 8.59869 2.98938C8.70222 3.25931 8.75399 3.58748 8.75399 3.97389V4.26786H5.36783V3.64664H7.94142C7.94142 3.42848 7.89705 3.23528 7.8083 3.06703C7.71956 2.89694 7.59476 2.7629 7.43391 2.66491C7.27491 2.56692 7.08818 2.51792 6.87371 2.51792C6.64076 2.51792 6.43738 2.57524 6.26359 2.68987C6.09165 2.80265 5.95853 2.95055 5.86424 3.13359C5.7718 3.31478 5.72558 3.51168 5.72558 3.7243V4.20962C5.72558 4.49434 5.7755 4.73654 5.87534 4.93621C5.97702 5.13589 6.11846 5.28842 6.29965 5.3938C6.48083 5.49734 6.69253 5.54911 6.93472 5.54911C7.09188 5.54911 7.23516 5.52692 7.36458 5.48255C7.494 5.43633 7.60586 5.36792 7.70015 5.27733C7.79444 5.18673 7.86654 5.07488 7.91646 4.94176L8.7013 5.0832C8.63844 5.3143 8.52566 5.51675 8.36296 5.69054C8.20211 5.86249 7.99966 5.99653 7.75561 6.09267C7.51341 6.18696 7.23701 6.2341 6.9264 6.2341ZM9.67402 6.14813V1.88839H10.4699V2.58171H10.5226C10.6114 2.34691 10.7565 2.16387 10.958 2.0326C11.1596 1.89949 11.4008 1.83293 11.6819 1.83293C11.9666 1.83293 12.2051 1.89949 12.3974 2.0326C12.5915 2.16572 12.7348 2.34875 12.8272 2.58171H12.8716C12.9733 2.3543 13.1351 2.17311 13.3569 2.03815C13.5788 1.90133 13.8432 1.83293 14.1501 1.83293C14.5365 1.83293 14.8517 1.95403 15.0958 2.19622C15.3417 2.43842 15.4646 2.80357 15.4646 3.29167V6.14813H14.6354V3.36932C14.6354 3.0809 14.5568 2.87198 14.3997 2.74256C14.2425 2.61314 14.0549 2.54843 13.8367 2.54843C13.5668 2.54843 13.3569 2.63163 13.2072 2.79802C13.0574 2.96257 12.9825 3.17426 12.9825 3.4331V6.14813H12.1561V3.31663C12.1561 3.08552 12.084 2.89971 11.9398 2.7592C11.7956 2.61869 11.6079 2.54843 11.3768 2.54843C11.2197 2.54843 11.0745 2.59003 10.9414 2.67323C10.8101 2.75458 10.7038 2.86828 10.6225 3.01434C10.543 3.1604 10.5032 3.32957 10.5032 3.52185V6.14813H9.67402ZM16.576 6.14813V1.88839H17.4052V6.14813H16.576ZM16.9948 1.23113C16.8505 1.23113 16.7267 1.18306 16.6231 1.08692C16.5215 0.988929 16.4706 0.872451 16.4706 0.737485C16.4706 0.600671 16.5215 0.484194 16.6231 0.388054C16.7267 0.290065 16.8505 0.241071 16.9948 0.241071C17.139 0.241071 17.2619 0.290065 17.3636 0.388054C17.4671 0.484194 17.5189 0.600671 17.5189 0.737485C17.5189 0.872451 17.4671 0.988929 17.3636 1.08692C17.2619 1.18306 17.139 1.23113 16.9948 1.23113ZM18.5873 6.14813V0.468479H20.6673C21.0703 0.468479 21.404 0.535037 21.6684 0.668154C21.9328 0.799422 22.1306 0.977836 22.2619 1.20339C22.3932 1.42711 22.4588 1.67947 22.4588 1.9605C22.4588 2.19715 22.4153 2.39682 22.3284 2.55952C22.2415 2.72037 22.1251 2.84979 21.979 2.94778C21.8348 3.04392 21.6758 3.11418 21.502 3.15855V3.21401C21.6906 3.22326 21.8746 3.28427 22.0539 3.39705C22.2351 3.50798 22.3848 3.66606 22.5032 3.87128C22.6215 4.0765 22.6806 4.32609 22.6806 4.62006C22.6806 4.91033 22.6122 5.17102 22.4754 5.40212C22.3405 5.63138 22.1315 5.81349 21.8487 5.94846C21.5658 6.08157 21.2043 6.14813 20.7643 6.14813H18.5873ZM19.4442 5.41322H20.6811C21.0916 5.41322 21.3855 5.33372 21.563 5.17472C21.7405 5.01571 21.8293 4.81696 21.8293 4.57846C21.8293 4.39912 21.784 4.23458 21.6934 4.08482C21.6028 3.93506 21.4734 3.81581 21.3051 3.72707C21.1387 3.63832 20.9409 3.59395 20.7116 3.59395H19.4442V5.41322ZM19.4442 2.92559H20.5924C20.7847 2.92559 20.9575 2.88862 21.111 2.81466C21.2663 2.74071 21.3892 2.63717 21.4798 2.50406C21.5723 2.36909 21.6185 2.21009 21.6185 2.02706C21.6185 1.79225 21.5362 1.59535 21.3717 1.43635C21.2071 1.27735 20.9548 1.19785 20.6146 1.19785H19.4442V2.92559ZM24.4597 0.468479V6.14813H23.6305V0.468479H24.4597ZM26.8149 6.24242C26.545 6.24242 26.3009 6.1925 26.0828 6.09267C25.8646 5.99098 25.6917 5.844 25.5642 5.65172C25.4384 5.45944 25.3756 5.22371 25.3756 4.94453C25.3756 4.70418 25.4218 4.50636 25.5142 4.35105C25.6067 4.19575 25.7315 4.0728 25.8886 3.98221C26.0458 3.89162 26.2214 3.82321 26.4155 3.77699C26.6097 3.73077 26.8075 3.69564 27.009 3.6716C27.2642 3.64202 27.4712 3.61799 27.6302 3.5995C27.7892 3.57916 27.9048 3.54681 27.9769 3.50243C28.049 3.45806 28.0851 3.38596 28.0851 3.28612V3.26671C28.0851 3.02451 28.0166 2.83685 27.8798 2.70373C27.7449 2.57062 27.5433 2.50406 27.2753 2.50406C26.9961 2.50406 26.7761 2.56599 26.6152 2.68987C26.4562 2.81189 26.3462 2.94778 26.2852 3.09754L25.5059 2.92005C25.5984 2.66121 25.7333 2.45229 25.9108 2.29329C26.0902 2.13244 26.2963 2.01596 26.5293 1.94386C26.7622 1.8699 27.0072 1.83293 27.2642 1.83293C27.4343 1.83293 27.6145 1.85326 27.805 1.89394C27.9972 1.93276 28.1766 2.00487 28.343 2.11025C28.5112 2.21564 28.649 2.36632 28.7562 2.5623C28.8634 2.75643 28.917 3.00879 28.917 3.3194V6.14813H28.1072V5.56575H28.074C28.0203 5.67298 27.9399 5.77836 27.8327 5.8819C27.7255 5.98543 27.5877 6.07141 27.4195 6.13981C27.2512 6.20822 27.0497 6.24242 26.8149 6.24242ZM26.9952 5.57684C27.2244 5.57684 27.4204 5.53154 27.5831 5.44095C27.7476 5.35036 27.8724 5.23203 27.9575 5.08597C28.0444 4.93806 28.0878 4.77999 28.0878 4.61174V4.06263C28.0582 4.09222 28.0009 4.11995 27.9159 4.14583C27.8327 4.16987 27.7375 4.19113 27.6302 4.20962C27.523 4.22626 27.4185 4.24197 27.3169 4.25676C27.2152 4.26971 27.1301 4.2808 27.0617 4.29004C26.9009 4.31038 26.7539 4.34458 26.6208 4.39265C26.4895 4.44072 26.3841 4.51006 26.3046 4.60065C26.227 4.68939 26.1881 4.80772 26.1881 4.95563C26.1881 5.16085 26.2639 5.31615 26.4155 5.42154C26.5672 5.52507 26.7604 5.57684 26.9952 5.57684ZM32.8974 7.74553V5.48532H32.8474C32.7975 5.57591 32.7254 5.67945 32.6311 5.79593C32.5387 5.9124 32.4111 6.01409 32.2484 6.10099C32.0857 6.18788 31.875 6.23133 31.6161 6.23133C31.2722 6.23133 30.9653 6.14351 30.6954 5.96787C30.4273 5.79038 30.2165 5.53801 30.0631 5.21077C29.9115 4.88167 29.8357 4.48694 29.8357 4.02658C29.8357 3.56622 29.9124 3.17242 30.0659 2.84517C30.2212 2.51792 30.4338 2.26741 30.7037 2.09361C30.9736 1.91982 31.2796 1.83293 31.6217 1.83293C31.886 1.83293 32.0987 1.8773 32.2595 1.96604C32.4222 2.05294 32.5479 2.15463 32.6367 2.2711C32.7273 2.38758 32.7975 2.49019 32.8474 2.57894H32.9168V1.88839H33.7266V7.74553H32.8974ZM31.7992 5.52415C32.0377 5.52415 32.2392 5.46129 32.4037 5.33556C32.5701 5.20799 32.6958 5.03143 32.7809 4.80587C32.8678 4.58031 32.9112 4.31778 32.9112 4.01826C32.9112 3.72245 32.8687 3.46361 32.7837 3.24175C32.6986 3.01989 32.5738 2.84702 32.4093 2.72315C32.2447 2.59927 32.0414 2.53734 31.7992 2.53734C31.5496 2.53734 31.3416 2.60205 31.1752 2.73147C31.0088 2.86088 30.8831 3.03745 30.798 3.26116C30.7148 3.48487 30.6732 3.73724 30.6732 4.01826C30.6732 4.30298 30.7157 4.55905 30.8008 4.78646C30.8858 5.01387 31.0115 5.19413 31.1779 5.32724C31.3462 5.45851 31.5533 5.52415 31.7992 5.52415ZM36.8971 6.14813V5.52692L38.819 3.53571C39.0242 3.3194 39.1934 3.12989 39.3265 2.96719C39.4615 2.80265 39.5622 2.64642 39.6288 2.49851C39.6953 2.3506 39.7286 2.19345 39.7286 2.02706C39.7286 1.83847 39.6842 1.67577 39.5955 1.53896C39.5068 1.4003 39.3857 1.29399 39.2322 1.22003C39.0788 1.14423 38.9059 1.10633 38.7136 1.10633C38.5102 1.10633 38.3327 1.14793 38.1811 1.23113C38.0295 1.31433 37.9131 1.43173 37.8317 1.58333C37.7504 1.73494 37.7097 1.91243 37.7097 2.1158H36.8916C36.8916 1.77007 36.9711 1.46778 37.1301 1.20894C37.2891 0.950103 37.5072 0.749503 37.7846 0.607142C38.0619 0.462932 38.3771 0.390827 38.7302 0.390827C39.0871 0.390827 39.4014 0.462008 39.6732 0.604369C39.9468 0.744881 40.1603 0.937161 40.3138 1.18121C40.4672 1.42341 40.544 1.69704 40.544 2.0021C40.544 2.21286 40.5042 2.41901 40.4247 2.62053C40.3471 2.82206 40.2112 3.04669 40.017 3.29444C39.8229 3.54034 39.553 3.83892 39.2072 4.1902L38.0785 5.37162V5.41322H40.6355V6.14813H36.8971ZM43.6639 6.24242C43.2257 6.24057 42.8513 6.12502 42.5407 5.89576C42.2301 5.66651 41.9925 5.33279 41.828 4.89461C41.6634 4.45644 41.5812 3.92859 41.5812 3.31108C41.5812 2.69541 41.6634 2.16942 41.828 1.73309C41.9944 1.29676 42.2329 0.963969 42.5435 0.734713C42.8559 0.505456 43.2294 0.390827 43.6639 0.390827C44.0984 0.390827 44.4709 0.50638 44.7815 0.737485C45.0921 0.966743 45.3297 1.29953 45.4942 1.73586C45.6606 2.17034 45.7438 2.69541 45.7438 3.31108C45.7438 3.93044 45.6616 4.45921 45.497 4.89739C45.3325 5.33372 45.0949 5.66743 44.7843 5.89854C44.4737 6.1278 44.1002 6.24242 43.6639 6.24242ZM43.6639 5.50196C44.0485 5.50196 44.3489 5.3143 44.5652 4.93899C44.7834 4.56367 44.8924 4.02104 44.8924 3.31108C44.8924 2.83962 44.8425 2.4412 44.7427 2.1158C44.6447 1.78855 44.5033 1.54081 44.3184 1.37256C44.1353 1.20247 43.9172 1.11742 43.6639 1.11742C43.2812 1.11742 42.9807 1.30601 42.7626 1.68317C42.5444 2.06033 42.4344 2.60297 42.4326 3.31108C42.4326 3.78438 42.4816 4.18466 42.5795 4.5119C42.6794 4.8373 42.8208 5.08412 43.0039 5.25237C43.1869 5.41876 43.4069 5.50196 43.6639 5.50196ZM46.7277 6.14813V5.52692L48.6495 3.53571C48.8548 3.3194 49.0239 3.12989 49.157 2.96719C49.292 2.80265 49.3928 2.64642 49.4593 2.49851C49.5259 2.3506 49.5592 2.19345 49.5592 2.02706C49.5592 1.83847 49.5148 1.67577 49.426 1.53896C49.3373 1.4003 49.2162 1.29399 49.0627 1.22003C48.9093 1.14423 48.7364 1.10633 48.5441 1.10633C48.3408 1.10633 48.1633 1.14793 48.0117 1.23113C47.8601 1.31433 47.7436 1.43173 47.6622 1.58333C47.5809 1.73494 47.5402 1.91243 47.5402 2.1158H46.7221C46.7221 1.77007 46.8016 1.46778 46.9606 1.20894C47.1196 0.950103 47.3378 0.749503 47.6151 0.607142C47.8924 0.462932 48.2077 0.390827 48.5608 0.390827C48.9176 0.390827 49.2319 0.462008 49.5037 0.604369C49.7773 0.744881 49.9909 0.937161 50.1443 1.18121C50.2978 1.42341 50.3745 1.69704 50.3745 2.0021C50.3745 2.21286 50.3348 2.41901 50.2553 2.62053C50.1776 2.82206 50.0417 3.04669 49.8476 3.29444C49.6535 3.54034 49.3835 3.83892 49.0378 4.1902L47.9091 5.37162V5.41322H50.466V6.14813H46.7277ZM51.5171 6.14813V5.52692L53.439 3.53571C53.6442 3.3194 53.8134 3.12989 53.9465 2.96719C54.0814 2.80265 54.1822 2.64642 54.2488 2.49851C54.3153 2.3506 54.3486 2.19345 54.3486 2.02706C54.3486 1.83847 54.3042 1.67577 54.2155 1.53896C54.1267 1.4003 54.0056 1.29399 53.8522 1.22003C53.6987 1.14423 53.5259 1.10633 53.3336 1.10633C53.1302 1.10633 52.9527 1.14793 52.8011 1.23113C52.6495 1.31433 52.533 1.43173 52.4517 1.58333C52.3703 1.73494 52.3297 1.91243 52.3297 2.1158H51.5115C51.5115 1.77007 51.591 1.46778 51.75 1.20894C51.909 0.950103 52.1272 0.749503 52.4045 0.607142C52.6819 0.462932 52.9971 0.390827 53.3502 0.390827C53.707 0.390827 54.0214 0.462008 54.2931 0.604369C54.5668 0.744881 54.7803 0.937161 54.9338 1.18121C55.0872 1.42341 55.1639 1.69704 55.1639 2.0021C55.1639 2.21286 55.1242 2.41901 55.0447 2.62053C54.967 2.82206 54.8311 3.04669 54.637 3.29444C54.4429 3.54034 54.173 3.83892 53.8272 4.1902L52.6985 5.37162V5.41322H55.2555V6.14813H51.5171Z" fill="#F9F5FF"/>
</svg>
