<svg width="10" height="10" viewBox="0 0 10 10" fill="none" xmlns="http://www.w3.org/2000/svg">
<path d="M4.21031 8.58332C4.2103 8.51969 4.1963 8.45684 4.16929 8.39922C4.14228 8.34161 4.10294 8.29064 4.05404 8.24993C4.00514 8.20922 3.94788 8.17976 3.88633 8.16364C3.82478 8.14752 3.76043 8.14514 3.69785 8.15666C3.12989 8.26089 2.41279 8.27656 2.22213 7.74102C2.05587 7.32625 1.78049 6.96419 1.42516 6.69324C1.39981 6.67945 1.37564 6.66357 1.35292 6.64578C1.32182 6.56375 1.26659 6.49307 1.1945 6.44307C1.12242 6.39308 1.03687 6.3661 0.949139 6.36572H0.947022C0.832308 6.36568 0.72225 6.41108 0.640937 6.492C0.559624 6.57292 0.513679 6.68275 0.513159 6.79746C0.511463 7.15125 0.865022 7.37792 1.00846 7.45461C1.1776 7.62456 1.31353 7.82457 1.40927 8.04439C1.56731 8.48843 2.02659 9.1621 3.34682 9.07525C3.34726 9.09051 3.34767 9.10491 3.34788 9.11804L3.34979 9.23414C3.34979 9.3492 3.3955 9.45956 3.47686 9.54092C3.55823 9.62229 3.66858 9.668 3.78365 9.668C3.89872 9.668 4.00907 9.62229 4.09044 9.54092C4.1718 9.45956 4.21751 9.3492 4.21751 9.23414L4.21539 9.09601C4.21328 9.01379 4.21031 8.89473 4.21031 8.58332ZM8.83832 2.02071C8.85209 1.96648 8.86565 1.90632 8.87751 1.83853C8.94768 1.35502 8.88651 0.86155 8.70041 0.409817C8.67693 0.350925 8.64085 0.297883 8.5947 0.254408C8.54855 0.210933 8.49346 0.178078 8.43327 0.158146C8.27882 0.10603 7.70854 0.00349572 6.61796 0.700474C5.71142 0.487141 4.76773 0.487141 3.86119 0.700474C2.77505 0.0137045 2.20772 0.106898 2.05477 0.156046C1.9931 0.175171 1.93649 0.207852 1.8891 0.251694C1.8417 0.295537 1.80471 0.349429 1.78085 0.409422C1.59095 0.869828 1.53044 1.37337 1.60586 1.86565C1.61646 1.92116 1.62789 1.97243 1.63976 2.01945C1.28034 2.4982 1.08889 3.08214 1.0951 3.68076C1.09393 3.81432 1.10008 3.94784 1.11353 4.08072C1.25844 6.07759 2.56003 6.67712 3.46694 6.88304C3.44809 6.93727 3.43093 6.99531 3.41567 7.05675C3.38849 7.16838 3.40668 7.28624 3.46626 7.38448C3.52584 7.48272 3.62195 7.55332 3.73351 7.5808C3.84507 7.60828 3.96297 7.5904 4.06137 7.53109C4.15976 7.47177 4.23062 7.37585 4.2584 7.26436C4.286 7.1198 4.35676 6.987 4.46135 6.88346C4.52459 6.8281 4.57037 6.75555 4.59314 6.67464C4.6159 6.59373 4.61466 6.50795 4.58957 6.42774C4.56448 6.34752 4.51661 6.27633 4.4518 6.22281C4.38699 6.1693 4.30802 6.13578 4.22451 6.12632C2.7259 5.95515 2.07532 5.34461 1.97744 4.00107C1.9666 3.89466 1.96172 3.78772 1.96283 3.68076C1.95587 3.25413 2.09682 2.83823 2.36173 2.50374C2.38835 2.46887 2.41671 2.43535 2.44668 2.40332C2.4998 2.34389 2.53552 2.27096 2.54991 2.19256C2.5643 2.11415 2.5568 2.0333 2.52825 1.95887C2.49898 1.88057 2.47644 1.79992 2.46088 1.71779C2.42554 1.48424 2.43713 1.246 2.49499 1.01699C2.87207 1.1235 3.22696 1.29685 3.54276 1.52881C3.59499 1.5636 3.65408 1.58675 3.71604 1.59669C3.77799 1.60663 3.84136 1.60313 3.90185 1.58644C4.77873 1.34846 5.70321 1.34861 6.58001 1.58687C6.64083 1.60355 6.70453 1.60685 6.76674 1.59653C6.82895 1.58622 6.88818 1.56254 6.94036 1.52713C7.25469 1.29421 7.60809 1.1193 7.98392 1.01065C8.04152 1.23416 8.05441 1.46684 8.02184 1.69534C8.00613 1.78538 7.98158 1.87365 7.94854 1.95888C7.91999 2.0333 7.9125 2.11416 7.92689 2.19256C7.94128 2.27097 7.97699 2.34389 8.03011 2.40333C8.06358 2.44104 8.09705 2.48171 8.12713 2.51985C8.39018 2.84868 8.52874 3.25979 8.51843 3.68076C8.51921 3.79339 8.51377 3.90598 8.50212 4.01802C8.40657 5.34375 7.75345 5.95472 6.24785 6.12631C6.16432 6.13583 6.08534 6.16941 6.02054 6.22297C5.95573 6.27654 5.90789 6.34778 5.88282 6.42803C5.85775 6.50829 5.85654 6.59409 5.87934 6.67502C5.90213 6.75595 5.94795 6.82851 6.01122 6.88388C6.11909 6.99019 6.19001 7.1283 6.21353 7.27792C6.24285 7.39406 6.25632 7.51364 6.25358 7.6334V8.64603C6.24933 8.92693 6.24933 9.13751 6.24933 9.23411C6.24933 9.34918 6.29504 9.45953 6.3764 9.5409C6.45777 9.62226 6.56812 9.66797 6.68319 9.66797C6.79826 9.66797 6.90861 9.62226 6.98998 9.5409C7.07134 9.45953 7.11705 9.34918 7.11705 9.23411C7.11705 9.14005 7.11705 8.93371 7.12129 8.6528V7.6334C7.12479 7.44156 7.10219 7.25013 7.05413 7.06437C7.04039 7.0034 7.02357 6.94316 7.00372 6.88389C7.66373 6.77424 8.26342 6.43395 8.69605 5.92358C9.12867 5.41321 9.36616 4.76589 9.36623 4.09683C9.38053 3.95861 9.38718 3.81971 9.38615 3.68076C9.39578 3.08149 9.20274 2.49654 8.83832 2.02072L8.83832 2.02071Z" fill="#FAFBFF"/>
</svg>
